<svg xmlns:mydata="http://www.w3.org/2000/svg" mydata:contrastcolor="171C8F" mydata:template="Contrast" mydata:presentation="2.5" mydata:layouttype="undefined" mydata:specialfontid="undefined" mydata:id1="331" mydata:id2="251" mydata:companyname="Based swap" mydata:companytagline="" version="1.1" xmlns="http://www.w3.org/2000/svg" xmlns:xlink="http://www.w3.org/1999/xlink" style="height: 345px;" viewBox="100 120 400 250"><g fill="#43b02a" fill-rule="nonzero" stroke="none" stroke-width="1" stroke-linecap="butt" stroke-linejoin="miter" stroke-miterlimit="10" stroke-dasharray="" stroke-dashoffset="0" font-family="none" font-weight="none" font-size="none" text-anchor="none" style="mix-blend-mode: normal"><g data-paper-data="{&quot;isGlobalGroup&quot;:true,&quot;bounds&quot;:{&quot;x&quot;:119.78040254918345,&quot;y&quot;:153.95944010490751,&quot;width&quot;:310.4391949016331,&quot;height&quot;:162.08111979018497}}"><g data-paper-data="{&quot;stacked&quot;:true,&quot;isPrimaryText&quot;:true}" id="element-id-12255"><path d="M159.68377,185.9718c0.8967,0.53802 1.86813,1.25539 2.91429,2.15209c1.04616,0.8967 2.01759,2.00264 2.91429,3.31781c0.8967,1.31517 1.6589,2.85451 2.2866,4.61803c0.62769,1.76352 0.94154,3.75121 0.94154,5.96309c0,2.45099 -0.25407,4.58814 -0.7622,6.41144c-0.50813,1.8233 -1.18066,3.40748 -2.01759,4.75254c-0.83692,1.34506 -1.79341,2.48088 -2.86946,3.40748c-1.07605,0.92659 -2.18198,1.68879 -3.31781,2.2866c-2.63033,1.43473 -5.61935,2.24176 -8.96705,2.4211h-31.02599v-11.38815h31.02599c0,0 0.34374,-0.04484 1.03121,-0.13451c0.68747,-0.08967 1.46462,-0.38857 2.33143,-0.8967c0.86681,-0.50813 1.64396,-1.28528 2.33143,-2.33143c0.68747,-1.04616 1.03121,-2.55561 1.03121,-4.52836c0,-2.03253 -0.35868,-3.61671 -1.07605,-4.75254c-0.71736,-1.13583 -1.49451,-1.94286 -2.33143,-2.4211c-1.01627,-0.5978 -2.1222,-0.92659 -3.31781,-0.98638h-31.02599v-11.38815h25.46642c1.25539,0 2.39121,-0.32879 3.40748,-0.98638c0.83692,-0.47824 1.61407,-1.30022 2.33143,-2.46594c0.71736,-1.16572 1.07605,-2.79473 1.07605,-4.88704c0,-2.15209 -0.35868,-3.82594 -1.07605,-5.02155c-0.71736,-1.19561 -1.49451,-2.06242 -2.33143,-2.60044c-1.01627,-0.65758 -2.15209,-1.01627 -3.40748,-1.07605h-25.46642v-11.38815h26.63213c3.10858,0.17934 5.88836,1.01627 8.33935,2.51077c1.07605,0.65758 2.10726,1.46462 3.09363,2.4211c0.98638,0.95649 1.88308,2.13715 2.69011,3.54198c0.80703,1.40484 1.44967,3.0488 1.92792,4.93188c0.47824,1.88308 0.71736,4.08001 0.71736,6.59078c0,1.97275 -0.17934,3.69143 -0.53802,5.15605c-0.35868,1.46462 -0.77714,2.70506 -1.25539,3.72132c-0.53802,1.13583 -1.10594,2.15209 -1.70374,3.0488z" data-paper-data="{&quot;glyphName&quot;:&quot;B&quot;,&quot;glyphIndex&quot;:0,&quot;firstGlyphOfWord&quot;:true,&quot;word&quot;:1,&quot;line&quot;:1,&quot;firstGlyphOfFirstLine&quot;:true}" id="element-id-74529"></path><path d="M208.19549,153.95944l33.7161,67.34253h-13.62991l-20.08619,-42.32447l-19.99652,42.32447h-13.62991z" data-paper-data="{&quot;glyphName&quot;:&quot;A&quot;,&quot;glyphIndex&quot;:1,&quot;word&quot;:1,&quot;line&quot;:1}" id="element-id-52949"></path><path d="M275.53802,181.48828c0.47824,0.05978 1.30022,0.17934 2.46594,0.35868c1.16572,0.17934 2.48088,0.52308 3.9455,1.03121c1.46462,0.50813 2.97407,1.18066 4.52836,2.01759c1.55429,0.83692 2.95913,1.9877 4.21451,3.45231c1.25539,1.46462 2.30154,3.24308 3.13847,5.33539c0.83692,2.09231 1.25539,4.60308 1.25539,7.53232c0,0.11956 -0.04484,0.70242 -0.13451,1.74857c-0.08967,1.04616 -0.37363,2.31649 -0.85187,3.811c-0.47824,1.49451 -1.19561,3.07869 -2.15209,4.75254c-0.95649,1.67385 -2.33143,3.24308 -4.12484,4.7077c-1.79341,1.46462 -4.05012,2.67517 -6.77012,3.63165c-2.72,0.95649 -6.05276,1.43473 -9.99826,1.43473c-3.6466,0 -7.09891,-0.7622 -10.35694,-2.2866c-3.25803,-1.5244 -6.05276,-3.63165 -8.38419,-6.32177l9.14639,-7.08397c0,0.05978 0.22418,0.32879 0.67253,0.80703c0.44835,0.47824 1.10594,0.98638 1.97275,1.5244c0.86681,0.53802 1.97275,1.03121 3.31781,1.47956c1.34506,0.44835 2.94418,0.67253 4.79737,0.67253c3.40748,0 6.0677,-0.88176 7.98067,-2.64528c1.91297,-1.76352 2.86946,-3.84089 2.86946,-6.2321c0,-1.73363 -0.35868,-3.15341 -1.07605,-4.25935c-0.71736,-1.10594 -1.68879,-2.00264 -2.91429,-2.69011c-1.2255,-0.68747 -2.63033,-1.2255 -4.21451,-1.61407c-1.58418,-0.38857 -3.27297,-0.7622 -5.06638,-1.12088c-0.47824,-0.05978 -1.27033,-0.20923 -2.37627,-0.44835c-1.10594,-0.23912 -2.33143,-0.62769 -3.67649,-1.16572c-1.34506,-0.53802 -2.74989,-1.24044 -4.21451,-2.10726c-1.46462,-0.86681 -2.77978,-1.97275 -3.9455,-3.31781c-1.16572,-1.34506 -2.13715,-2.95913 -2.91429,-4.84221c-0.77714,-1.88308 -1.16572,-4.1099 -1.16572,-6.68045c0,-0.11956 0.04484,-0.67253 0.13451,-1.6589c0.08967,-0.98638 0.35868,-2.18198 0.80703,-3.58682c0.44835,-1.40484 1.16572,-2.91429 2.15209,-4.52836c0.98638,-1.61407 2.37627,-3.09363 4.16968,-4.43869c1.79341,-1.34506 4.05012,-2.46594 6.77012,-3.36264c2.72,-0.8967 6.05276,-1.34506 9.99826,-1.34506c3.6466,0 7.11386,0.77714 10.40178,2.33143c3.28792,1.55429 6.09759,3.67649 8.42902,6.3666l-9.14639,7.08397c-0.65758,-1.13583 -1.58418,-2.01759 -2.77978,-2.64528c-1.19561,-0.62769 -2.39121,-1.09099 -3.58682,-1.38989c-1.43473,-0.2989 -2.95913,-0.47824 -4.57319,-0.53802c-3.40748,0 -6.0677,0.67253 -7.98067,2.01759c-1.91297,1.34506 -2.86946,3.24308 -2.86946,5.69408c0,1.73363 0.2989,3.09363 0.8967,4.08001c0.5978,0.98638 1.41978,1.74857 2.46594,2.2866c1.04616,0.53802 2.31649,0.94154 3.811,1.21055c1.49451,0.26901 3.13847,0.58286 4.93188,0.94154z" data-paper-data="{&quot;glyphName&quot;:&quot;S&quot;,&quot;glyphIndex&quot;:2,&quot;word&quot;:1,&quot;line&quot;:1}" id="element-id-79344"></path><path d="M310.68885,221.30197v-11.20881h44.92491v11.20881zM350.59221,182.0263v11.20881h-39.90336v-11.20881zM310.68885,154.04911h44.92491v11.20881h-44.92491z" data-paper-data="{&quot;glyphName&quot;:&quot;E&quot;,&quot;glyphIndex&quot;:3,&quot;word&quot;:1,&quot;line&quot;:1}" id="element-id-69009"></path><path d="M396.68284,154.04911c4.66286,0.11956 9.02683,1.09099 13.09189,2.91429c4.06506,1.8233 7.62199,4.25935 10.67079,7.30814c3.0488,3.0488 5.44001,6.59078 7.17364,10.62595c1.73363,4.03517 2.60044,8.29452 2.60044,12.77804c0,4.66286 -0.92659,9.04177 -2.77978,13.13673c-1.85319,4.09495 -4.33407,7.65188 -7.44265,10.67079c-3.10858,3.01891 -6.68045,5.39517 -10.71562,7.1288c-4.03517,1.73363 -8.23474,2.63033 -12.5987,2.69011h-22.41762v-11.29848h23.76268c2.92924,0.11956 5.66419,-0.44835 8.20485,-1.70374c2.54066,-1.25539 4.76748,-2.94418 6.68045,-5.06638c1.91297,-2.1222 3.42242,-4.5433 4.52836,-7.26331c1.10594,-2.72 1.6589,-5.48484 1.6589,-8.29452c0,-2.80967 -0.55297,-5.57451 -1.6589,-8.29452c-1.10594,-2.72 -2.60044,-5.12616 -4.48352,-7.21847c-1.88308,-2.09231 -4.1099,-3.76616 -6.68045,-5.02155c-2.57055,-1.25539 -5.32045,-1.85319 -8.24968,-1.79341h-23.76268v-11.29848z" data-paper-data="{&quot;glyphName&quot;:&quot;D&quot;,&quot;glyphIndex&quot;:4,&quot;lastGlyphOfWord&quot;:true,&quot;word&quot;:1,&quot;line&quot;:1,&quot;lastGlyphOfFirstLine&quot;:true}" id="element-id-84987"></path><path d="M147.05834,270.74697c0.54284,0.06786 1.47586,0.20357 2.79904,0.40713c1.32318,0.20357 2.81601,0.59374 4.47847,1.17051c1.66246,0.57677 3.37581,1.34015 5.14006,2.29013c1.76424,0.94998 3.35885,2.2562 4.78382,3.91866c1.42497,1.66246 2.61244,3.68116 3.56242,6.05611c0.94998,2.37494 1.42497,5.22488 1.42497,8.5498c0,0.13571 -0.05089,0.7973 -0.15268,1.98478c-0.10178,1.18747 -0.4241,2.6294 -0.96694,4.32579c-0.54284,1.69639 -1.35711,3.49456 -2.4428,5.39452c-1.08569,1.89996 -2.64637,3.68116 -4.68203,5.34363c-2.03567,1.66246 -4.59721,3.03654 -7.68464,4.12223c-3.08743,1.08569 -6.87038,1.62853 -11.34884,1.62853c-4.13919,0 -8.05785,-0.86516 -11.75598,-2.59548c-3.69813,-1.73032 -6.87038,-4.12223 -9.51674,-7.17573l10.3819,-8.04088c0,0.06786 0.25446,0.37321 0.76338,0.91605c0.50892,0.54284 1.25533,1.11962 2.23923,1.73032c0.98391,0.6107 2.23923,1.17051 3.76598,1.67943c1.52675,0.50892 3.34189,0.76338 5.44541,0.76338c3.86777,0 6.88734,-1.00087 9.05872,-3.00261c2.17138,-2.00174 3.25707,-4.35972 3.25707,-7.07394c0,-1.96781 -0.40713,-3.57938 -1.2214,-4.83471c-0.81427,-1.25533 -1.91692,-2.27316 -3.30796,-3.0535c-1.39104,-0.78034 -2.98564,-1.39104 -4.78382,-1.8321c-1.79817,-0.44106 -3.71509,-0.86516 -5.75076,-1.27229c-0.54284,-0.06786 -1.44193,-0.23749 -2.69726,-0.50892c-1.25533,-0.27142 -2.64637,-0.71248 -4.17312,-1.32318c-1.52675,-0.6107 -3.12136,-1.408 -4.78382,-2.39191c-1.66246,-0.98391 -3.15528,-2.23923 -4.47847,-3.76598c-1.32318,-1.52675 -2.42584,-3.35885 -3.30796,-5.4963c-0.88212,-2.13745 -1.32318,-4.66507 -1.32318,-7.58286c0,-0.13571 0.05089,-0.76338 0.15268,-1.88299c0.10178,-1.11962 0.40713,-2.47673 0.91605,-4.07133c0.50892,-1.59461 1.32318,-3.30796 2.4428,-5.14006c1.11962,-1.8321 2.69726,-3.51153 4.73293,-5.03828c2.03567,-1.52675 4.59721,-2.79904 7.68464,-3.81688c3.08743,-1.01783 6.87038,-1.52675 11.34884,-1.52675c4.13919,0 8.07481,0.88212 11.80687,2.64637c3.73206,1.76424 6.92127,4.17312 9.56763,7.22662l-10.3819,8.04088c-0.74641,-1.28926 -1.79817,-2.29013 -3.15528,-3.00261c-1.35711,-0.71248 -2.71422,-1.23836 -4.07133,-1.57764c-1.62853,-0.33928 -3.35885,-0.54284 -5.19095,-0.6107c-3.86777,0 -6.88734,0.76338 -9.05872,2.29013c-2.17138,1.52675 -3.25707,3.68116 -3.25707,6.46324c0,1.96781 0.33928,3.51153 1.01783,4.63114c0.67856,1.11962 1.61157,1.98478 2.79904,2.59548c1.18747,0.6107 2.6294,1.06873 4.32579,1.37408c1.69639,0.30535 3.56242,0.66159 5.59808,1.06873z" data-paper-data="{&quot;glyphName&quot;:&quot;S&quot;,&quot;glyphIndex&quot;:5,&quot;firstGlyphOfWord&quot;:true,&quot;word&quot;:2,&quot;line&quot;:2,&quot;firstGlyphOfSecondLine&quot;:true}" id="element-id-26736"></path><path d="M225.12616,301.38376l-7.3284,14.6568l-38.88124,-76.33751h15.2675zM274.59287,239.70305h15.2675l-38.77945,76.33751l-37.55805,-76.33751h15.2675l22.49412,47.22747z" data-paper-data="{&quot;glyphName&quot;:&quot;W&quot;,&quot;glyphIndex&quot;:6,&quot;word&quot;:2,&quot;line&quot;:2}" id="element-id-49169"></path><path d="M318.05435,239.49949l38.27054,76.43929h-15.47107l-22.79947,-48.04174l-22.69769,48.04174h-15.47107z" data-paper-data="{&quot;glyphName&quot;:&quot;A&quot;,&quot;glyphIndex&quot;:7,&quot;word&quot;:2,&quot;line&quot;:2}" id="element-id-17465"></path><path d="M409.04866,239.70305c3.93562,0.20357 7.46411,1.11962 10.58547,2.74815c1.28926,0.67856 2.57851,1.54371 3.86777,2.59548c1.28926,1.05176 2.42584,2.35798 3.40974,3.91866c0.98391,1.56068 1.78121,3.39278 2.39191,5.4963c0.6107,2.10352 0.91605,4.54632 0.91605,7.3284c0,2.84993 -0.30535,5.32666 -0.91605,7.43018c-0.6107,2.10352 -1.408,3.95259 -2.39191,5.54719c-0.98391,1.59461 -2.12049,2.93475 -3.40974,4.02044c-1.28926,1.08569 -2.57851,1.96781 -3.86777,2.64637c-3.12136,1.69639 -6.64985,2.64637 -10.58547,2.84993h-25.6494v31.65462h-12.72292v-44.47932h37.45627c0.06786,0 0.6107,-0.05089 1.62853,-0.15268c1.01783,-0.10178 2.08656,-0.45803 3.20618,-1.06873c1.11962,-0.6107 2.15441,-1.56068 3.10439,-2.84993c0.94998,-1.28926 1.42497,-3.15528 1.42497,-5.59808c0,-2.37494 -0.49195,-4.19008 -1.47586,-5.44541c-0.98391,-1.25533 -2.05263,-2.18834 -3.20618,-2.79904c-1.35711,-0.74641 -2.91779,-1.15354 -4.68203,-1.2214h-37.45627v-12.72292h38.37232z" data-paper-data="{&quot;glyphName&quot;:&quot;P&quot;,&quot;glyphIndex&quot;:8,&quot;lastGlyphOfWord&quot;:true,&quot;word&quot;:2,&quot;line&quot;:2,&quot;lastGlyphOfSecondLine&quot;:true}" id="element-id-14597"></path></g></g></g><rect data-element-id="element-id-12255" stroke-width="2" fill="transparent" class="invisible-element-box grouping-element" x="120" y="154" width="310" height="162" data-element-name="isPrimaryText"></rect><rect data-element-id="element-id-49169" stroke-width="2" fill="transparent" class="invisible-element-box individual-element" x="179" y="240" width="111" height="76"></rect><rect data-element-id="element-id-17465" stroke-width="2" fill="transparent" class="invisible-element-box individual-element" x="280" y="239" width="76" height="76"></rect><rect data-element-id="element-id-14597" stroke-width="2" fill="transparent" class="invisible-element-box individual-element" x="371" y="240" width="60" height="76"></rect><rect data-element-id="element-id-52949" stroke-width="2" fill="transparent" class="invisible-element-box individual-element" x="175" y="154" width="67" height="67"></rect><rect data-element-id="element-id-84987" stroke-width="2" fill="transparent" class="invisible-element-box individual-element" x="374" y="154" width="56" height="67"></rect><rect data-element-id="element-id-26736" stroke-width="2" fill="transparent" class="invisible-element-box individual-element" x="120" y="240" width="49" height="76"></rect><rect data-element-id="element-id-74529" stroke-width="2" fill="transparent" class="invisible-element-box individual-element" x="120" y="154" width="49" height="67"></rect><rect data-element-id="element-id-69009" stroke-width="2" fill="transparent" class="invisible-element-box individual-element" x="311" y="154" width="45" height="67"></rect><rect data-element-id="element-id-79344" stroke-width="2" fill="transparent" class="invisible-element-box individual-element" x="252" y="154" width="44" height="67"></rect></svg>